<svg width="88" height="88" viewBox="0 0 88 88" fill="none" xmlns="http://www.w3.org/2000/svg">
<rect x="20" y="20" width="48" height="48" rx="24" fill="#113E3E"/>
<circle cx="44" cy="44" r="44" fill="#499E9E"/>
<g clip-path="url(#clip0_434_529)">
<path d="M44 49.5992C50.618 49.5992 56 44.1275 56 37.3992C56 30.6709 50.618 25.1992 44 25.1992C37.382 25.1992 32 30.6709 32 37.3992C32 44.1275 37.382 49.5992 44 49.5992ZM44 31.2992C47.309 31.2992 50 34.0351 50 37.3992C50 40.7634 47.309 43.4992 44 43.4992C40.691 43.4992 38 40.7634 38 37.3992C38 34.0351 40.691 31.2992 44 31.2992Z" fill="#4D2424"/>
<path d="M42.2603 73.4327C42.768 73.8013 43.3763 73.9995 44.0003 73.9995C44.6242 73.9995 45.2325 73.8013 45.7403 73.4327C46.6523 72.7769 68.0873 57.042 68.0003 37.4C68.0003 23.9464 57.2333 13 44.0003 13C30.7673 13 20.0003 23.9464 20.0003 37.3847C19.9133 57.042 41.3483 72.7769 42.2603 73.4327ZM44.0003 19.1C53.9273 19.1 62.0003 27.3075 62.0003 37.4152C62.0633 50.9511 48.8363 63.1054 44.0003 67.0917C39.1673 63.1023 25.9373 50.945 26.0003 37.4C26.0003 27.3075 34.0733 19.1 44.0003 19.1Z" fill="#4D2424"/>
</g>
<defs>
<clipPath id="clip0_434_529">
<rect width="48" height="61" fill="white" transform="translate(20 13)"/>
</clipPath>
</defs>
</svg>
