<svg width="88" height="88" viewBox="0 0 88 88" fill="none" xmlns="http://www.w3.org/2000/svg">
<rect x="20" y="20" width="48" height="48" rx="24" fill="#113E3E"/>
<circle cx="44" cy="44" r="44" fill="#499E9E"/>
<path d="M68 68H20C18.4087 68 16.8826 67.3679 15.7574 66.2426C14.6321 65.1174 14 63.5913 14 62V25.739C14.0673 24.1934 14.729 22.7335 15.847 21.6641C16.965 20.5947 18.4529 19.9985 20 20H68C69.5913 20 71.1174 20.6321 72.2426 21.7574C73.3679 22.8826 74 24.4087 74 26V62C74 63.5913 73.3679 65.1174 72.2426 66.2426C71.1174 67.3679 69.5913 68 68 68ZM20 31.604V62H68V31.604L44 47.6L20 31.604ZM22.4 26L44 40.4L65.6 26H22.4Z" fill="#4D2424"/>
</svg>
