<svg width="88" height="88" viewBox="0 0 88 88" fill="none" xmlns="http://www.w3.org/2000/svg">
<rect x="20" y="20" width="48" height="48" rx="24" fill="#113E3E"/>
<circle cx="44" cy="44" r="44" fill="#499E9E"/>
<path d="M63.5303 69.3906H63.1983C24.8194 67.1836 19.3702 34.8008 18.6084 24.918C18.5471 24.1496 18.6379 23.3766 18.8758 22.6434C19.1136 21.9102 19.4939 21.2311 19.9946 20.645C20.4954 20.059 21.1069 19.5775 21.794 19.2282C22.4812 18.8789 23.2305 18.6686 23.9991 18.6094H34.7608C35.5431 18.6086 36.3077 18.8428 36.9554 19.2816C37.6031 19.7203 38.1041 20.3435 38.3936 21.0703L41.3624 28.375C41.6482 29.0851 41.7191 29.8634 41.5663 30.6135C41.4136 31.3635 41.0438 32.0521 40.503 32.5938L36.3428 36.793C36.9927 40.4858 38.7611 43.89 41.409 46.5448C44.0569 49.1997 47.4564 50.9771 51.1475 51.6367L55.3858 47.4375C55.9356 46.9027 56.6307 46.5415 57.3844 46.3991C58.1381 46.2567 58.917 46.3393 59.6241 46.6367L66.9874 49.5859C67.7032 49.8845 68.314 50.3895 68.7418 51.0365C69.1696 51.6834 69.3952 52.4431 69.3897 53.2188V63.5312C69.3897 65.0853 68.7724 66.5756 67.6735 67.6745C66.5747 68.7733 65.0843 69.3906 63.5303 69.3906ZM24.4678 22.5156C23.9498 22.5156 23.453 22.7214 23.0868 23.0877C22.7205 23.454 22.5147 23.9508 22.5147 24.4688V24.625C23.4131 36.1875 29.1749 63.5312 63.4131 65.4844C63.6697 65.5002 63.9269 65.4653 64.17 65.3815C64.413 65.2978 64.6371 65.1668 64.8295 64.9963C65.0218 64.8257 65.1786 64.6188 65.2908 64.3876C65.4031 64.1563 65.4685 63.9051 65.4834 63.6484V53.2188L58.1202 50.2695L52.5147 55.8359L51.5772 55.7188C34.585 53.5898 32.2803 36.5977 32.2803 36.4219L32.1631 35.4844L37.71 29.8789L34.7803 22.5156H24.4678Z" fill="#4D2424"/>
</svg>
