<svg width="88" height="88" viewBox="0 0 88 88" fill="none" xmlns="http://www.w3.org/2000/svg">
<rect x="20" y="20" width="48" height="48" rx="24" fill="#113E3E"/>
<circle cx="44" cy="44" r="44" fill="#499E9E"/>
<path d="M71.6702 29.3702C72.0754 28.0028 71.6702 27 69.754 27H63.4066C61.7915 27 61.0534 27.8675 60.6482 28.8203C60.6482 28.8203 57.4209 36.816 52.8476 42.0004C51.3715 43.509 50.6971 43.9854 49.8924 43.9854C49.4901 43.9854 48.9054 43.509 48.9054 42.1416V29.3702C48.9054 27.7293 48.4394 27 47.0935 27H37.1193C36.112 27 35.5042 27.7587 35.5042 28.4821C35.5042 30.0348 37.7908 30.3935 38.0252 34.7693V44.2618C38.0252 46.3409 37.6576 46.7202 36.8472 46.7202C34.6966 46.7202 29.4635 38.6951 26.3578 29.5084C25.7528 27.7234 25.1421 27.0029 23.5212 27.0029H17.1766C15.3618 27.0029 15 27.8704 15 28.8232C15 30.5347 17.1506 39.0039 25.0176 50.2049C30.2624 57.8536 37.6461 62 44.3727 62C48.4047 62 48.9025 61.0796 48.9025 59.4916V53.7102C48.9025 51.8694 49.2875 51.4988 50.5639 51.4988C51.5017 51.4988 53.1168 51.9811 56.8825 55.6658C61.1836 60.0356 61.8957 61.9971 64.3125 61.9971H70.6571C72.469 61.9971 73.375 61.0766 72.854 59.2593C72.2838 57.4508 70.2287 54.8189 67.5022 51.7047C66.0202 49.9285 63.806 48.0171 63.1316 47.0613C62.1909 45.8292 62.463 45.2852 63.1316 44.1912C63.1345 44.1942 70.8655 33.1313 71.6702 29.3702Z" fill="#4D2424"/>
</svg>
